<svg width="17" height="13" viewBox="0 0 17 13" fill="none" xmlns="http://www.w3.org/2000/svg">
<path d="M4.04199 1.30469C4.04199 1.30469 4.56921 1.35958 4.9256 1.58262C5.06162 1.67232 5.01316 1.75024 4.91944 1.80085C4.62357 1.9607 4.1167 2.07343 4.1167 2.07343" stroke="#1B1B1B" stroke-width="0.378827" stroke-linecap="round" stroke-linejoin="round"/>
<path d="M4.04199 1.30469C4.04199 1.30469 4.56921 1.35958 4.9256 1.58262C5.06162 1.67232 5.01316 1.75024 4.91944 1.80085C4.62357 1.9607 4.1167 2.07343 4.1167 2.07343" stroke="#1B1B1B" stroke-width="0.378827" stroke-linecap="round" stroke-linejoin="round"/>
<path d="M9.17002 1.30469C9.17002 1.30469 8.6428 1.35958 8.28641 1.58262C8.15039 1.67232 8.19885 1.75024 8.29257 1.80085C8.58844 1.9607 9.09531 2.07343 9.09531 2.07343" stroke="#1B1B1B" stroke-width="0.378827" stroke-linecap="round" stroke-linejoin="round"/>
<path d="M6.7271 2.97087C6.67114 2.97355 6.61518 2.97355 6.55921 2.97087L5.53101 2.92188C5.06243 2.92188 4.96952 3.37921 5.2255 3.75541C5.31145 3.88153 5.65177 4.18704 6.18783 4.34368C6.4821 4.42963 6.79377 4.43392 7.09179 4.36162C7.72263 4.20873 7.97915 3.88822 8.06992 3.75541C8.32616 3.37921 8.23325 2.92188 7.7644 2.92188L6.7271 2.97087V2.97087Z" fill="#D3626E" stroke="#1B1B1B" stroke-width="0.162354" stroke-miterlimit="10"/>
<path d="M13.0309 1.00054C13.0823 1.00696 13.134 1.01178 13.1851 1.02035C13.3182 1.04257 13.4462 1.07738 13.5421 1.18208C13.6318 1.28008 13.6867 1.39736 13.7308 1.52079C13.7927 1.6943 13.8299 1.8737 13.858 2.05498C13.906 2.36156 13.929 2.67029 13.9429 2.98009C13.9547 3.2441 13.9587 3.50838 13.9574 3.77266C13.9563 3.99195 13.9539 4.21125 13.9472 4.43055C13.9394 4.68358 13.9287 4.93688 13.9151 5.18965C13.9009 5.44991 13.8819 5.7099 13.8644 5.97017C13.8618 6.00846 13.8599 6.04701 13.8537 6.08504C13.8433 6.15144 13.8623 6.2141 13.8725 6.27809C13.8843 6.35173 13.8982 6.42509 13.9089 6.49899C13.9116 6.5172 13.9177 6.52015 13.9343 6.52068C14.1212 6.52845 14.3073 6.54451 14.4923 6.57263C14.7719 6.61493 15.0471 6.67786 15.3176 6.76113C15.3318 6.76541 15.3462 6.7697 15.3594 6.77613C15.3968 6.79487 15.4126 6.83798 15.3979 6.87707C15.3837 6.91402 15.3438 6.93625 15.3047 6.92527C15.1642 6.88564 15.0241 6.84467 14.8817 6.81227C14.6683 6.76354 14.453 6.72605 14.2348 6.70463C14.1464 6.69606 14.0583 6.6891 13.9697 6.68482C13.9432 6.68348 13.9319 6.68723 13.9359 6.71829C13.9552 6.8752 13.9646 7.03318 13.9702 7.19115C13.9772 7.38582 13.9716 7.58021 13.9579 7.77434C13.9469 7.9291 13.9295 8.08279 13.9041 8.23569C13.9006 8.25657 13.906 8.26782 13.9247 8.27853C14.0511 8.35029 14.1713 8.43195 14.2878 8.51871C14.3314 8.55111 14.3421 8.60091 14.314 8.63867C14.2846 8.67803 14.2369 8.68311 14.1925 8.65045C14.0937 8.57735 13.9924 8.50773 13.8869 8.44481C13.8816 8.44159 13.8757 8.43918 13.8687 8.4357C13.824 8.6558 13.7697 8.87162 13.6947 9.08101C13.5889 9.37581 13.4296 9.6417 13.2411 9.89045C12.8981 10.3435 12.4734 10.7036 11.9861 10.992C11.5114 11.2729 11.0024 11.4694 10.4698 11.6079C10.1817 11.6828 9.88955 11.7393 9.59501 11.7803C9.33903 11.8159 9.08171 11.8408 8.82333 11.8545C8.7272 11.8596 8.63134 11.8657 8.53522 11.866C8.49746 11.8719 8.45917 11.8671 8.42142 11.8689C8.4099 11.8695 8.39812 11.8657 8.38714 11.8721H7.93115C7.92017 11.8654 7.90812 11.8689 7.89687 11.8689C7.77076 11.8703 7.64438 11.8681 7.51853 11.8601C7.36082 11.8502 7.20311 11.8363 7.04593 11.8183C6.80334 11.7907 6.56236 11.7546 6.32298 11.7061C5.91705 11.6239 5.52023 11.5107 5.13627 11.3551C4.79996 11.2188 4.47891 11.0531 4.17768 10.8501C4.00364 10.7328 3.8379 10.6043 3.68126 10.4643C3.4317 10.2412 3.21294 9.99166 3.02739 9.71319C2.8753 9.48506 2.74811 9.24407 2.66725 8.9806C2.61825 8.82074 2.57327 8.66009 2.54033 8.49622C2.53926 8.49086 2.53819 8.48577 2.53712 8.48042C2.53016 8.44989 2.52882 8.44909 2.50284 8.46462C2.41181 8.51898 2.32452 8.57922 2.23937 8.64215C2.22893 8.64964 2.21902 8.65794 2.20804 8.66464C2.166 8.69061 2.11539 8.68285 2.08648 8.64643C2.05622 8.60814 2.0605 8.55646 2.10013 8.52246C2.14565 8.48336 2.19626 8.4507 2.24526 8.41669C2.31461 8.3685 2.3861 8.32298 2.45947 8.28121C2.48544 8.26648 2.49481 8.25015 2.48972 8.21935C2.46402 8.05977 2.44795 7.89911 2.4359 7.73792C2.42225 7.55183 2.42144 7.36573 2.42573 7.17964C2.42921 7.03023 2.44126 6.88082 2.45679 6.73194C2.46054 6.69606 2.4592 6.69553 2.42118 6.69553C2.32585 6.6958 2.23133 6.70678 2.13682 6.71668C1.88191 6.74373 1.63102 6.79192 1.3828 6.85565C1.30087 6.8768 1.2192 6.89903 1.13887 6.92473C1.11745 6.93169 1.0963 6.93973 1.073 6.93625C1.03284 6.93035 1.01222 6.91027 1.00098 6.86636V6.8278C1.00687 6.78068 1.04087 6.76354 1.08077 6.75176C1.33032 6.67732 1.58282 6.61574 1.84014 6.5745C2.02516 6.54478 2.21072 6.52148 2.39815 6.51613C2.40993 6.51586 2.42144 6.51372 2.43323 6.51211C2.46839 6.50747 2.48847 6.4873 2.49347 6.4516C2.50579 6.36565 2.52078 6.28023 2.53792 6.19535C2.54461 6.16242 2.54515 6.13002 2.5422 6.09655C2.5339 5.99962 2.52694 5.90242 2.51971 5.80549C2.51141 5.69357 2.50391 5.58138 2.49669 5.46945C2.49106 5.38404 2.48624 5.29862 2.48169 5.21321C2.47553 5.09566 2.47125 4.97811 2.46348 4.86084C2.46 4.80541 2.45866 4.74945 2.45759 4.69402C2.45572 4.59656 2.45117 4.49936 2.44795 4.40216C2.44394 4.27257 2.44795 4.14297 2.44153 4.01391C2.43269 3.84469 2.43456 3.67546 2.43805 3.50677C2.44153 3.34531 2.44153 3.18359 2.44983 3.02239C2.46777 2.66975 2.48999 2.31738 2.55211 1.96876C2.58638 1.77651 2.62949 1.58666 2.70902 1.407C2.75668 1.29936 2.81746 1.19975 2.91198 1.12612C3.00356 1.05462 3.112 1.02678 3.22446 1.01018C3.27506 1.00268 3.32647 1.00696 3.37735 1.00027H3.61512C3.65287 1.00884 3.69143 1.00428 3.72972 1.00562C3.87565 1.01098 4.01917 1.03427 4.16242 1.05891C4.49926 1.11701 4.83075 1.19895 5.15983 1.29079C5.49399 1.38397 5.82495 1.48786 6.15349 1.59844C6.47801 1.70796 6.8004 1.8239 7.11983 1.94734C7.14768 1.95805 7.17446 1.96099 7.20418 1.95644C7.35439 1.93341 7.50514 1.91681 7.65643 1.90262C7.88884 1.88066 8.12179 1.87317 8.35501 1.87852C8.483 1.88147 8.61126 1.89004 8.73898 1.90128C8.90098 1.91574 9.06244 1.93502 9.22309 1.95912C9.24076 1.9618 9.2571 1.95805 9.27316 1.95162C9.48817 1.86969 9.70372 1.78936 9.92087 1.71278C10.149 1.63245 10.3785 1.55587 10.6088 1.4817C10.8227 1.41289 11.0382 1.34862 11.2546 1.28811C11.593 1.19359 11.9339 1.11059 12.2804 1.05195C12.4448 1.0241 12.61 1 12.7779 1.00321C12.7832 1.00321 12.7886 1.00402 12.7931 1C12.8724 1 12.9517 1 13.0309 1V1.00054Z" fill="#1A1A1A"/>
<path d="M8.38672 11.8724C8.43572 11.8621 8.48525 11.8659 8.53479 11.8661C8.53479 11.8683 8.53479 11.8702 8.53452 11.8724H8.38672Z" fill="#98908B"/>
<path d="M13.7107 7.79923C13.708 7.89241 13.6943 7.98426 13.6823 8.07637C13.6793 8.09832 13.6804 8.12108 13.6697 8.14304C13.5382 8.08119 13.4043 8.02683 13.2659 7.98265C13.0196 7.9042 12.7681 7.85654 12.5092 7.84716C12.3775 7.84234 12.2465 7.84904 12.1164 7.86912C12.0535 7.87876 12.0267 7.90607 12.0281 7.95802C12.0291 8.00514 12.073 8.04209 12.1194 8.03406C12.4171 7.98158 12.7111 8.0105 13.0027 8.07771C13.2164 8.12697 13.4204 8.20302 13.6177 8.29807C13.637 8.30744 13.6451 8.31574 13.6405 8.33824C13.5928 8.57681 13.5369 8.81351 13.4496 9.04084C13.3371 9.3335 13.17 9.59484 12.9735 9.83743C12.6078 10.2886 12.1568 10.6345 11.6452 10.9034C11.1704 11.1529 10.667 11.3216 10.1444 11.4354C9.88356 11.4922 9.62035 11.535 9.355 11.5653C9.14267 11.5896 8.9298 11.6057 8.71639 11.617C8.4663 11.6301 8.21595 11.6312 7.96586 11.6269C7.74469 11.6231 7.52379 11.6105 7.30342 11.5913C7.01504 11.5658 6.72827 11.5283 6.44391 11.4734C5.70596 11.331 5.00577 11.0895 4.37172 10.6769C3.89617 10.3673 3.49507 9.98202 3.18848 9.50139C3.0131 9.22666 2.89877 8.92811 2.82406 8.61269C2.80211 8.52031 2.78176 8.42767 2.76301 8.33449C2.75953 8.31762 2.76248 8.30985 2.77801 8.30236C3.02194 8.18454 3.27577 8.09698 3.543 8.04852C3.71731 8.01692 3.89269 8.00354 4.06941 8.01023C4.13876 8.01291 4.20785 8.0196 4.27613 8.03272C4.32379 8.04209 4.36502 8.01666 4.37627 7.97087C4.38644 7.92856 4.35886 7.88572 4.31227 7.87528C4.23061 7.85707 4.1476 7.85118 4.06433 7.84823C3.60592 7.83244 3.17429 7.94061 2.76087 8.13179C2.73865 8.14224 2.73115 8.14465 2.7266 8.11412C2.67974 7.79013 2.66689 7.4648 2.6792 7.13813C2.68456 6.99194 2.69607 6.84574 2.71401 6.70035C2.71615 6.68294 2.72178 6.67973 2.73731 6.68026C3.23775 6.6966 3.72266 6.78442 4.18053 6.99515C4.2464 7.02541 4.31067 7.05888 4.37225 7.09743C4.41697 7.12528 4.4649 7.11671 4.49033 7.07735C4.51657 7.03665 4.50399 6.98792 4.45767 6.95954C4.29728 6.86047 4.12484 6.78737 3.94705 6.72632C3.69509 6.63983 3.43643 6.5828 3.17215 6.55094C3.0372 6.5346 2.90225 6.52362 2.76649 6.52095C2.74266 6.52041 2.73704 6.51265 2.74159 6.49176C2.74454 6.47811 2.74641 6.46445 2.74882 6.45079C2.78015 6.43125 2.81656 6.43446 2.85057 6.42964C3.27604 6.36966 3.69482 6.27916 4.10556 6.15197C4.48578 6.03416 4.85288 5.88448 5.20499 5.69892C5.55923 5.51229 5.89072 5.29086 6.19677 5.03247C6.34404 4.90823 6.48542 4.77756 6.61769 4.63752C6.75425 4.49293 6.88384 4.34218 7.00541 4.1842C7.18909 3.94509 7.35028 3.69179 7.49487 3.42751C7.52727 3.36834 7.55967 3.30916 7.58885 3.24838C7.59448 3.23687 7.59876 3.22455 7.60867 3.21571C7.63304 3.21036 7.63116 3.23098 7.63437 3.24356C7.66249 3.35682 7.69382 3.46928 7.72755 3.58067C7.81886 3.88297 7.92409 4.18045 8.05208 4.46937C8.10751 4.59468 8.16534 4.71892 8.22853 4.84022C8.39508 5.15965 8.58653 5.46303 8.80957 5.74685C8.9622 5.94071 9.13223 6.11824 9.30948 6.2888C9.38794 6.36431 9.47201 6.43419 9.55716 6.5022C9.56948 6.51211 9.58447 6.51961 9.59036 6.53567C9.58769 6.54853 9.57724 6.55469 9.56787 6.56165C9.53038 6.59003 9.4945 6.62055 9.45996 6.65242C9.404 6.70383 9.38365 6.76836 9.40614 6.84172C9.42837 6.91375 9.47897 6.95659 9.55422 6.9665C9.79386 6.99783 10.033 7.03157 10.2699 7.07842C10.422 7.10841 10.5738 7.13974 10.7198 7.19436C10.7428 7.20293 10.7658 7.2123 10.7864 7.22542C10.8205 7.24738 10.8577 7.25916 10.8976 7.26398C11.0467 7.32155 11.1964 7.37751 11.3487 7.42624C11.3589 7.42946 11.3694 7.43267 11.3753 7.44258C11.3777 7.45623 11.3661 7.46052 11.3581 7.46694C11.3118 7.50523 11.3 7.55209 11.3238 7.60725C11.3651 7.70257 11.4114 7.79522 11.455 7.8892C11.5006 7.9872 11.5472 8.0844 11.5921 8.18267C11.6288 8.26273 11.7145 8.28709 11.7761 8.23381C11.8085 8.20569 11.8219 8.17008 11.8109 8.12724C11.8031 8.09698 11.7887 8.06914 11.7753 8.04156C11.6955 7.87581 11.6195 7.70846 11.5402 7.54272C11.5324 7.52639 11.5107 7.50791 11.534 7.48676C11.6018 7.49827 11.6666 7.5205 11.733 7.5379C12.0222 7.61368 12.3151 7.67071 12.611 7.71195C12.7561 7.73229 12.902 7.74675 13.048 7.76068C13.1328 7.76898 13.2185 7.77246 13.3039 7.77648C13.429 7.7821 13.5537 7.7896 13.6791 7.78879C13.6908 7.78879 13.7029 7.78906 13.7117 7.79897L13.7107 7.79923Z" fill="#FEFEFE"/>
<path d="M9.58691 6.53507C9.50177 6.47375 9.42358 6.40413 9.34593 6.33398C8.86289 5.89726 8.49017 5.37754 8.19697 4.79864C7.94768 4.30677 7.76507 3.79026 7.62798 3.25688C7.6245 3.24296 7.6253 3.22662 7.61272 3.21591C7.6095 3.18967 7.62584 3.16932 7.63601 3.14817C7.7715 2.86729 7.88101 2.5765 7.97607 2.27982C7.98758 2.24421 7.99802 2.20833 8.00847 2.17245C8.01248 2.15826 8.01489 2.14273 8.02801 2.13309C8.24088 2.12747 8.45348 2.13229 8.66582 2.14969C8.88217 2.16736 9.09718 2.19334 9.31112 2.22948C9.73686 2.30178 10.1538 2.40835 10.5589 2.55856C11.024 2.731 11.4618 2.95485 11.8613 3.25019C12.4043 3.65129 12.829 4.15174 13.1283 4.75821C13.3219 5.15048 13.4601 5.56203 13.5632 5.98616C13.6039 6.15298 13.636 6.32166 13.6625 6.49142C13.6665 6.51713 13.6617 6.52115 13.6376 6.52195C13.2078 6.534 12.7885 6.60495 12.3839 6.75383C12.2345 6.80872 12.0891 6.87298 11.9531 6.95679C11.9336 6.96884 11.9159 6.98223 11.9068 7.00392C11.8937 7.03578 11.9025 7.0722 11.9279 7.09469C11.9547 7.11852 11.9935 7.1228 12.0259 7.10245C12.1285 7.03819 12.2375 6.98678 12.3494 6.94126C12.5965 6.84085 12.8525 6.77391 13.1157 6.73187C13.2954 6.70322 13.4761 6.6893 13.6577 6.68153C13.6759 6.68073 13.6893 6.67993 13.6919 6.70563C13.7185 6.95358 13.7343 7.20233 13.7294 7.45161C13.7273 7.56809 13.7251 7.68456 13.7102 7.80024C13.4901 7.8005 13.27 7.79006 13.0507 7.77185C12.7976 7.75097 12.5457 7.7183 12.2956 7.67305C12.0361 7.62619 11.7799 7.56595 11.5266 7.49258C11.5169 7.49419 11.5105 7.48856 11.5043 7.48294C11.4727 7.45402 11.4361 7.44251 11.3938 7.45027C11.3865 7.45161 11.379 7.45215 11.3729 7.44626C11.2229 7.39512 11.0724 7.34451 10.9254 7.2848C10.9155 7.28078 10.9062 7.27596 10.8965 7.27141C10.9003 7.25534 10.9145 7.25909 10.9252 7.25668C10.998 7.24115 11.0457 7.19697 11.0649 7.12602C11.0845 7.05292 11.0558 6.97687 10.9959 6.93564C10.9137 6.87887 10.8202 6.84755 10.7257 6.8197C10.5407 6.76508 10.3519 6.72839 10.1618 6.69573C10.1425 6.69251 10.112 6.69626 10.1098 6.6743C10.1074 6.65208 10.1385 6.65101 10.1562 6.64378C10.3366 6.56961 10.5251 6.52838 10.7182 6.50535C10.7787 6.49812 10.8392 6.4933 10.9003 6.49196C10.9819 6.49009 11.0542 6.42609 11.0668 6.34817C11.0816 6.2566 11.0355 6.17493 10.953 6.14494C10.9346 6.13825 10.9155 6.13745 10.8963 6.13718C10.6534 6.13584 10.4178 6.18189 10.1864 6.25205C9.98561 6.31283 9.79657 6.39958 9.6244 6.52088C9.61342 6.52864 9.60244 6.53882 9.58665 6.53507H9.58691Z" fill="#F0BA61"/>
<path d="M8.02845 2.13281C7.93152 2.47314 7.80782 2.80328 7.65734 3.12353C7.64288 3.15432 7.62788 3.18511 7.61342 3.2159C7.45571 3.53561 7.27257 3.84005 7.0597 4.12629C6.69527 4.61656 6.2607 5.03373 5.75597 5.37753C5.176 5.77248 4.54114 6.0464 3.86639 6.23142C3.50973 6.32915 3.14718 6.39877 2.78089 6.44884C2.77018 6.45018 2.75947 6.45071 2.74902 6.45179C2.77848 6.26141 2.81757 6.07317 2.86523 5.88681C2.91985 5.67394 2.98492 5.46429 3.06123 5.25811C3.12844 5.07684 3.20368 4.89904 3.29151 4.72661C3.40584 4.50169 3.53704 4.28721 3.68993 4.08639C3.77053 3.98036 3.85702 3.87915 3.94725 3.78061C4.02838 3.69225 4.1138 3.60871 4.20216 3.52811C4.33149 3.41056 4.46831 3.30212 4.61076 3.20064C4.85523 3.02686 5.11442 2.87906 5.38486 2.7508C5.5506 2.67208 5.72063 2.603 5.89333 2.54088C6.13512 2.45359 6.38146 2.38183 6.63155 2.32292C6.80318 2.28249 6.97615 2.24822 7.15047 2.22117C7.27739 2.20136 7.40457 2.18315 7.53229 2.17003C7.62869 2.16012 7.72481 2.15048 7.82147 2.14433C7.89056 2.14004 7.95937 2.13442 8.02872 2.13308L8.02845 2.13281Z" fill="#434344"/>
<path d="M6.68593 2.06005C6.60534 2.0796 6.52447 2.09781 6.44441 2.11869C6.18094 2.1867 5.92201 2.26784 5.66818 2.3661C5.48289 2.43813 5.30134 2.51819 5.12409 2.60762C4.85311 2.74445 4.5958 2.90403 4.35374 3.08718C4.23405 3.17769 4.11892 3.27435 4.00887 3.37717C3.93282 3.44812 3.85812 3.52015 3.78743 3.59566C3.65114 3.74105 3.52502 3.89528 3.40962 4.05808C3.25271 4.27898 3.12071 4.51434 3.00557 4.75935C2.92337 4.93419 2.85214 5.11359 2.79029 5.29674C2.77851 5.33208 2.76512 5.36689 2.75039 5.40733C2.74664 5.3934 2.74129 5.38403 2.74182 5.37466C2.74477 5.32432 2.7362 5.27452 2.73433 5.22444C2.7287 5.07209 2.71987 4.91973 2.71344 4.76738C2.71023 4.68866 2.70702 4.60967 2.70407 4.53095C2.69898 4.39225 2.69898 4.25301 2.69443 4.11431C2.68613 3.87145 2.69041 3.62859 2.69175 3.38573C2.69229 3.30487 2.69202 3.22347 2.69684 3.14234C2.70246 3.04755 2.70514 2.95277 2.70996 2.85798C2.71558 2.7399 2.72415 2.62208 2.73567 2.50454C2.75521 2.30693 2.77744 2.10932 2.81894 1.91466C2.85187 1.75909 2.89204 1.6062 2.96219 1.46188C3.01735 1.34808 3.10277 1.28515 3.22593 1.26373C3.35633 1.24124 3.4878 1.2383 3.61847 1.24606C3.90738 1.26373 4.19175 1.31461 4.47423 1.3778C4.75378 1.44046 5.0301 1.51463 5.30509 1.59469C5.61837 1.68599 5.92817 1.78801 6.2369 1.89351C6.38711 1.94465 6.53626 1.99927 6.68593 2.05256C6.68593 2.05497 6.6862 2.05738 6.68647 2.05979L6.68593 2.06005Z" fill="#434344"/>
<path d="M13.6591 5.41468C13.5796 5.18387 13.4931 4.95788 13.3894 4.73858C13.1851 4.30615 12.9219 3.91361 12.5904 3.56767C12.2258 3.18745 11.8051 2.88327 11.3395 2.63907C10.8366 2.37533 10.304 2.19379 9.75139 2.06848C9.7388 2.06553 9.72648 2.06285 9.70801 2.05857C9.80815 2.02242 9.90267 1.98734 9.99772 1.95387C10.4352 1.80018 10.8757 1.65613 11.3226 1.53188C11.6586 1.43844 11.9974 1.35543 12.342 1.2984C12.5594 1.26225 12.7781 1.23708 12.9991 1.24592C13.093 1.24967 13.1859 1.26171 13.2759 1.29251C13.3372 1.31339 13.3777 1.35784 13.4106 1.41032C13.4891 1.53483 13.5295 1.67433 13.5632 1.81571C13.6125 2.02055 13.6401 2.22913 13.6607 2.43852C13.6856 2.68968 13.699 2.94137 13.707 3.1936C13.7108 3.31544 13.7097 3.43753 13.7132 3.55937C13.7196 3.78616 13.7124 4.01295 13.7086 4.23974C13.7038 4.52303 13.6915 4.80606 13.6773 5.08908C13.6719 5.19779 13.665 5.30623 13.6588 5.41468H13.6591Z" fill="#F0BB61"/>
<path d="M8.23826 7.77284C8.62464 7.77284 9.01129 7.77525 9.39767 7.7715C9.51093 7.77043 9.59206 7.8189 9.6582 7.90217C9.72032 7.98035 9.75004 8.07273 9.76021 8.17073C9.79127 8.46875 9.71362 8.74267 9.56743 8.99865C9.37303 9.33924 9.10607 9.60727 8.75504 9.7864C8.57966 9.87583 8.3933 9.92644 8.19408 9.9176C8.01843 9.90984 7.85322 9.8603 7.6998 9.77703C7.26174 9.53899 6.95087 9.18822 6.77951 8.71857C6.71605 8.54506 6.69034 8.36432 6.71123 8.17957C6.72809 8.0315 6.77897 7.89922 6.91124 7.81301C6.95301 7.78569 6.99853 7.77177 7.04994 7.77204C7.44596 7.77311 7.84198 7.77257 8.23826 7.77257V7.77284Z" fill="#1B1C1C"/>
<path d="M6.28967 6.66849C6.20131 6.62645 6.11001 6.59592 6.01656 6.57102C5.84466 6.5255 5.66981 6.50114 5.49202 6.4931C5.39268 6.48855 5.31449 6.40046 5.31851 6.30246C5.32252 6.19991 5.40339 6.11797 5.5046 6.12119C5.96917 6.13618 6.40428 6.24944 6.79146 6.51667C6.8426 6.55201 6.88999 6.59191 6.93658 6.63288C7.00165 6.68964 7.02896 6.75899 7.00192 6.84226C6.97407 6.92848 6.9074 6.96463 6.82011 6.97507C6.49906 7.01417 6.17962 7.0621 5.86554 7.14162C5.77049 7.16572 5.67731 7.1933 5.59055 7.24257C5.50487 7.29103 5.39643 7.25649 5.34528 7.17161C5.29521 7.08887 5.3169 6.97989 5.39669 6.9234C5.47702 6.86663 5.5694 6.8361 5.66231 6.80799C5.86768 6.74587 6.07841 6.70785 6.28941 6.66849H6.28967Z" fill="#1B1B1B"/>
<path d="M9.58727 6.53531C9.68875 6.46622 9.79317 6.40196 9.9051 6.35055C10.1188 6.25228 10.3429 6.18989 10.575 6.15428C10.6797 6.13822 10.7847 6.12644 10.8907 6.12697C10.9981 6.12751 11.0784 6.20569 11.0798 6.31119C11.0811 6.41749 11.0008 6.49755 10.8923 6.5013C10.6321 6.51067 10.3804 6.56155 10.1386 6.65928C10.1292 6.66303 10.1185 6.66463 10.1089 6.67695C10.1664 6.68739 10.2219 6.69676 10.2767 6.70721C10.4789 6.7463 10.6808 6.78593 10.8733 6.86144C10.9132 6.87697 10.9515 6.89571 10.9877 6.91874C11.0605 6.96533 11.0937 7.04191 11.0765 7.1225C11.0597 7.20042 10.9949 7.25665 10.9095 7.26763C10.9055 7.26817 10.9017 7.27004 10.8977 7.27138C10.8674 7.27272 10.8377 7.26549 10.8128 7.25049C10.7151 7.19212 10.6064 7.16481 10.4979 7.1383C10.2626 7.081 10.0237 7.0411 9.7838 7.00817C9.70347 6.99719 9.62261 6.98889 9.54282 6.97524C9.46945 6.96265 9.41858 6.91793 9.39716 6.84644C9.3744 6.77147 9.39287 6.70399 9.45071 6.65071C9.49462 6.61028 9.54201 6.57359 9.5878 6.53504L9.58727 6.53531Z" fill="#1B1B1B"/>
<path d="M11.373 7.44662C11.4343 7.42841 11.4852 7.44528 11.5267 7.49294C11.5548 7.56684 11.592 7.63673 11.6252 7.70849C11.6852 7.83755 11.7463 7.96581 11.8065 8.0946C11.8384 8.16288 11.8153 8.23116 11.75 8.26248C11.6922 8.29006 11.6212 8.26516 11.591 8.20197C11.4967 8.0041 11.4035 7.80595 11.3114 7.60701C11.2838 7.5473 11.3058 7.49562 11.3727 7.44689L11.373 7.44662Z" fill="#E9989B"/>
<path d="M5.05085 7.38477C5.13974 7.38477 5.19758 7.47259 5.16009 7.55319C5.06852 7.74972 4.97641 7.94626 4.8835 8.14226C4.84306 8.22767 4.74078 8.24187 4.68 8.17198C4.64706 8.13396 4.64385 8.08817 4.66367 8.0456C4.75551 7.84665 4.84976 7.64904 4.94374 7.45117C4.9649 7.40645 5.00078 7.38316 5.05138 7.38503L5.05085 7.38477Z" fill="#E9989B"/>
<path d="M5.45032 7.49609C5.536 7.49609 5.58982 7.5708 5.56304 7.65541C5.50039 7.85382 5.4372 8.05196 5.37347 8.24984C5.35312 8.31303 5.28323 8.34757 5.22165 8.32722C5.15685 8.30607 5.12311 8.24181 5.14373 8.17674C5.20746 7.97753 5.27145 7.77858 5.33598 7.5799C5.35419 7.52341 5.39275 7.49636 5.45058 7.49636L5.45032 7.49609Z" fill="#E9989B"/>
<path d="M11.2148 8.38395C11.1607 8.38368 11.12 8.35637 11.1031 8.30469C11.0375 8.10387 10.9727 7.90305 10.909 7.70196C10.8889 7.63824 10.924 7.57478 10.9866 7.55362C11.0488 7.53247 11.1133 7.56219 11.1368 7.62672C11.1612 7.69393 11.1816 7.76248 11.2033 7.83049C11.2437 7.95633 11.2838 8.08245 11.3248 8.20803C11.3342 8.23695 11.3403 8.26613 11.3331 8.29585C11.32 8.35048 11.2734 8.38448 11.2148 8.38395V8.38395Z" fill="#E9989B"/>
<path d="M6.02457 7.69106C6.02056 7.7331 6.00395 7.78638 5.99164 7.8402C5.96165 7.97114 5.93166 8.10207 5.90087 8.23274C5.88667 8.29299 5.84571 8.32914 5.79028 8.33181C5.73378 8.33449 5.68773 8.30423 5.66845 8.25122C5.6564 8.21828 5.6639 8.18562 5.6714 8.15348C5.70969 7.98721 5.74798 7.82093 5.78734 7.65491C5.80902 7.56281 5.90488 7.52559 5.97905 7.57994C6.01145 7.60377 6.02591 7.63697 6.02457 7.69079V7.69106Z" fill="#E9989B"/>
<path d="M10.8097 8.25442C10.8102 8.32671 10.7714 8.37571 10.7157 8.38294C10.6424 8.39258 10.5885 8.3567 10.5722 8.28655C10.5414 8.15374 10.5114 8.02066 10.4809 7.88785C10.4713 7.84635 10.4611 7.80485 10.4517 7.76334C10.4362 7.69453 10.4742 7.62786 10.5374 7.61313C10.6075 7.59653 10.6697 7.63616 10.6865 7.70872C10.7267 7.88089 10.7669 8.05333 10.8065 8.2255C10.8094 8.23781 10.8094 8.25093 10.8097 8.25442Z" fill="#E9989B"/>
<path d="M8.2395 7.93494C8.62374 7.93494 9.00797 7.93628 9.39221 7.9336C9.46022 7.93307 9.50413 7.96252 9.53867 8.01339C9.60026 8.1047 9.6099 8.20913 9.60615 8.31462C9.59571 8.62255 9.472 8.88763 9.28939 9.12808C9.12338 9.3463 8.92202 9.52436 8.67381 9.64566C8.51717 9.72224 8.35357 9.7691 8.17658 9.75437C7.97522 9.73777 7.79609 9.66039 7.63142 9.54873C7.30073 9.32435 7.05814 9.02901 6.92721 8.64825C6.87339 8.49188 6.85277 8.33042 6.87767 8.16548C6.88865 8.09238 6.91409 8.02491 6.96978 7.97269C6.99629 7.94779 7.02574 7.93414 7.06457 7.93414C7.4563 7.93521 7.84803 7.93467 8.23977 7.93467L8.2395 7.93494Z" fill="#DE6673"/>
</svg>
