<svg width="17" height="13" viewBox="0 0 17 13" fill="none" xmlns="http://www.w3.org/2000/svg">
<path d="M16.7416 5.51942C16.6709 4.80985 16.1895 4.17312 15.4221 3.77362C13.3941 2.22141 12.7774 2.00935 12.085 2.10039C11.6932 2.15206 11.4207 2.26988 11.2514 2.46052C10.027 1.98311 8.76823 2.00051 8.7543 2.00051C8.74199 2.00024 7.62221 1.96731 6.31528 2.479C6.18059 2.33173 5.86651 2.16063 5.48843 2.12957C5.13793 2.10092 4.8027 2.13011 4.30413 2.36627C3.80476 2.6027 3.14071 3.04585 2.15187 3.80281C1.45489 4.29709 1.03585 5.01549 1.00211 5.77325C0.974262 6.40008 1.22328 6.9854 1.68543 7.37901C2.06271 7.70327 2.67213 7.96273 3.13696 7.99727C3.23577 8.88918 3.58118 9.64105 4.16463 10.2317C4.63615 10.7089 5.26271 11.0827 6.02717 11.3427C7.11668 11.7132 8.18183 11.744 8.50663 11.744C8.56982 11.744 8.60489 11.743 8.60704 11.7427C8.62016 11.7432 9.92335 11.7839 11.2605 11.3405C12.0461 11.08 12.6898 10.7057 13.1734 10.2282C13.7764 9.63248 14.1307 8.87392 14.2265 7.97264C14.2487 7.97371 14.271 7.97451 14.2935 7.97451C14.8386 7.97451 15.5214 7.66525 15.8882 7.34983C16.4977 6.85849 16.8088 6.19123 16.7419 5.51942H16.7416Z" fill="#FEF4E3"/>
<path d="M11.2529 2.46902C11.4259 2.27142 11.7097 2.15735 12.0851 2.10781C12.7883 2.01517 13.4033 2.23875 15.4169 3.77971C16.9991 4.60361 17.1782 6.2996 15.8825 7.3444C15.4972 7.67562 14.7748 7.99586 14.2189 7.96561" stroke="#1B1B1B" stroke-width="0.243531" stroke-linecap="round" stroke-linejoin="round"/>
<path d="M6.31282 2.48657C6.18189 2.34037 5.86486 2.16686 5.48732 2.13607C4.76785 2.07716 4.16914 2.267 2.15558 3.80796C0.782504 4.78207 0.656924 6.4928 1.68994 7.37266C2.07525 7.70388 2.68092 7.95691 3.14281 7.98984" stroke="#1B1B1B" stroke-width="0.243531" stroke-linecap="round" stroke-linejoin="round"/>
<path d="M12.7491 3.56306C13.573 4.4946 14.3493 5.97531 14.2205 7.96397C13.806 11.9196 8.60769 11.7343 8.60769 11.7343C8.60769 11.7343 3.55586 11.9236 3.14137 7.96798C3.01231 5.9796 3.77489 4.63356 4.43304 3.86777C4.79586 3.4423 5.30942 2.96997 5.94241 2.64491C7.41857 1.95891 8.75469 2.00657 8.75469 2.00657C8.75469 2.00657 10.387 1.97578 11.7576 2.69685" stroke="#1B1B1B" stroke-width="0.243531" stroke-linecap="round" stroke-linejoin="round"/>
<path d="M8.55376 6.97426C8.60464 6.96168 8.68818 6.9515 8.79608 6.97534C8.83544 6.9839 8.85981 7.02433 8.84776 7.06289C8.8317 7.11377 8.79501 7.18178 8.71254 7.22944C8.69166 7.24149 8.66595 7.24095 8.64507 7.22917C8.60008 7.20373 8.52431 7.14831 8.50369 7.0562C8.49539 7.02005 8.51761 6.98337 8.55376 6.97453V6.97426Z" fill="#191A1B"/>
<path d="M4.99346 8.21352C5.66025 8.21352 6.20079 7.93312 6.20079 7.58723C6.20079 7.24134 5.66025 6.96094 4.99346 6.96094C4.32667 6.96094 3.78613 7.24134 3.78613 7.58723C3.78613 7.93312 4.32667 8.21352 4.99346 8.21352Z" fill="#FAD5A2"/>
<path d="M12.3665 8.21352C13.0333 8.21352 13.5738 7.93312 13.5738 7.58723C13.5738 7.24134 13.0333 6.96094 12.3665 6.96094C11.6997 6.96094 11.1592 7.24134 11.1592 7.58723C11.1592 7.93312 11.6997 8.21352 12.3665 8.21352Z" fill="#FAD5A2"/>
<path d="M6.11133 6.20703C6.11133 6.20703 6.63855 6.26192 6.99494 6.48497C7.13096 6.57467 7.08249 6.65258 6.98878 6.70319C6.6929 6.86304 6.18603 6.97577 6.18603 6.97577" stroke="#1B1B1B" stroke-width="0.378827" stroke-linecap="round" stroke-linejoin="round"/>
<path d="M6.11133 6.20703C6.11133 6.20703 6.63855 6.26192 6.99494 6.48497C7.13096 6.57467 7.08249 6.65258 6.98878 6.70319C6.6929 6.86304 6.18603 6.97577 6.18603 6.97577" stroke="#1B1B1B" stroke-width="0.378827" stroke-linecap="round" stroke-linejoin="round"/>
<path d="M11.2413 6.20703C11.2413 6.20703 10.7141 6.26192 10.3577 6.48497C10.2217 6.57467 10.2701 6.65258 10.3639 6.70319C10.6597 6.86304 11.1666 6.97577 11.1666 6.97577" stroke="#1B1B1B" stroke-width="0.378827" stroke-linecap="round" stroke-linejoin="round"/>
<path d="M8.79741 7.87322C8.74145 7.8759 8.68549 7.8759 8.62953 7.87322L7.60133 7.82422C7.13275 7.82422 7.03983 8.28155 7.29581 8.65776C7.38176 8.78387 7.72209 9.08939 8.25814 9.24603C8.55241 9.33198 8.86408 9.33626 9.1621 9.26397C9.79295 9.11107 10.0495 8.79057 10.1402 8.65776C10.3965 8.28155 10.3036 7.82422 9.83472 7.82422L8.79741 7.87322V7.87322Z" fill="#D3626E" stroke="#1B1B1B" stroke-width="0.162354" stroke-miterlimit="10"/>
</svg>
