<svg width="23" height="23" viewBox="0 0 23 23" fill="none" xmlns="http://www.w3.org/2000/svg">
<path d="M8.12422 10.9934C8.12422 10.8559 8.15 10.7228 8.20156 10.5943C8.25313 10.465 8.32188 10.3574 8.40781 10.2715L13.1516 5.52773C13.3406 5.33867 13.5813 5.24414 13.8734 5.24414C14.1656 5.24414 14.4063 5.33867 14.5953 5.52773C14.7844 5.7168 14.8789 5.95742 14.8789 6.24961C14.8789 6.5418 14.7844 6.78242 14.5953 6.97148L10.5734 10.9934L14.5953 15.0152C14.7844 15.2043 14.8789 15.4449 14.8789 15.7371C14.8789 16.0293 14.7844 16.2699 14.5953 16.459C14.4062 16.648 14.1656 16.7426 13.8734 16.7426C13.5813 16.7426 13.3406 16.648 13.1516 16.459L8.40781 11.7152C8.30469 11.6121 8.23181 11.5004 8.18919 11.3801C8.14588 11.2598 8.12422 11.1309 8.12422 10.9934Z" fill="#747474"/>
</svg>
